<?xml version="1.0" standalone="no"?>
<!DOCTYPE svg PUBLIC "-//W3C//DTD SVG 20010904//EN"
 "http://www.w3.org/TR/2001/REC-SVG-20010904/DTD/svg10.dtd">
<svg version="1.0" xmlns="http://www.w3.org/2000/svg"
 width="700.000000pt" height="700.000000pt" viewBox="0 0 700.000000 700.000000"
 preserveAspectRatio="xMidYMid meet">
<metadata>
Created by potrace 1.14, written by Peter Selinger 2001-2017
</metadata>
<g transform="translate(0.000000,700.000000) scale(0.100000,-0.100000)"
fill="#000000" stroke="none">
<path d="M0 3500 l0 -3500 3500 0 3500 0 0 3500 0 3500 -3500 0 -3500 0 0
-3500z m6709 3252 c8 -13 7 -6500 -2 -6508 -4 -4 -2944 -8 -3250 -4 l-38 0 5
52 c6 53 9 77 26 218 5 41 12 98 15 125 3 28 8 66 10 85 3 19 7 58 10 85 3 28
10 82 15 120 5 39 12 95 15 125 3 30 8 71 11 90 2 19 6 51 8 70 6 52 17 151
21 180 3 23 8 64 19 160 3 19 7 58 11 85 3 28 8 70 11 95 3 24 7 46 8 47 2 2
187 3 412 3 l410 1 199 160 c110 89 216 174 235 189 184 148 310 252 309 258
0 4 -248 198 -550 432 -303 234 -556 430 -562 435 -7 6 -32 26 -57 45 -25 19
-47 37 -50 40 -3 3 -32 25 -65 50 -33 24 -66 50 -75 57 -8 7 -83 65 -167 130
-83 65 -226 176 -317 247 l-166 129 -2 800 -3 800 -110 -108 c-60 -59 -326
-320 -590 -580 -264 -260 -536 -528 -605 -595 -574 -560 -710 -699 -697 -712
6 -7 50 -56 97 -108 47 -52 90 -100 95 -106 6 -6 48 -53 95 -104 47 -51 92
-101 101 -112 22 -24 170 -188 189 -208 8 -9 51 -56 95 -105 44 -49 89 -99
100 -111 11 -11 51 -56 90 -99 38 -42 81 -90 95 -105 54 -59 175 -193 190
-210 8 -9 38 -42 65 -72 28 -30 86 -94 130 -143 44 -49 87 -96 95 -105 8 -9
50 -55 94 -103 l78 -87 105 0 105 0 -6 -37 c-5 -35 -10 -76 -21 -178 -2 -22
-7 -60 -10 -85 -6 -46 -11 -92 -20 -170 -3 -25 -7 -65 -10 -90 -3 -25 -7 -56
-9 -70 -3 -14 -8 -52 -11 -85 -3 -33 -8 -71 -10 -85 -2 -14 -6 -50 -10 -81 -3
-31 -7 -65 -9 -75 -2 -11 -7 -50 -10 -89 -4 -38 -9 -81 -11 -95 -5 -32 -14
-112 -20 -170 -3 -25 -7 -54 -9 -65 -3 -11 -8 -51 -11 -90 -4 -38 -9 -72 -10
-73 -2 -2 -108 -4 -237 -3 -354 0 -380 0 -375 9 3 4 8 36 12 72 4 36 9 73 10
82 2 9 6 45 10 80 3 35 8 74 10 88 2 14 7 50 10 80 3 30 8 66 10 80 2 14 7 54
10 90 4 36 8 72 10 80 3 14 13 102 20 173 2 18 7 52 10 77 6 43 4 47 -42 95
-26 28 -106 116 -178 195 -71 80 -137 152 -145 160 -8 8 -51 56 -95 105 -44
50 -100 112 -125 139 -25 27 -49 54 -55 60 -45 50 -184 204 -200 221 -22 22
-78 84 -195 215 -41 46 -82 91 -90 100 -8 9 -55 61 -105 116 -49 54 -92 101
-95 104 -3 3 -45 50 -95 105 -49 55 -111 123 -136 150 -25 28 -63 69 -84 92
l-37 43 -156 -154 c-86 -85 -159 -153 -161 -151 -2 3 -4 907 -5 2009 l-1 2005
35 3 c19 2 1463 2 3209 2 2180 -1 3175 -5 3180 -12z"/>
<path d="M4214 5374 c-98 -96 -239 -234 -311 -306 l-133 -131 0 -492 0 -492
69 -54 c38 -30 275 -214 527 -409 377 -292 539 -418 679 -527 168 -132 285
-222 306 -238 51 -38 284 -219 360 -280 l75 -60 -280 -225 c-154 -124 -322
-260 -374 -303 l-95 -77 315 0 314 1 150 119 c82 66 160 129 174 140 14 11
114 91 222 178 108 86 197 162 197 167 0 6 -90 80 -200 165 -111 85 -267 207
-348 270 -82 63 -163 126 -181 140 -18 14 -251 195 -519 403 -267 207 -547
425 -622 483 l-137 106 1 794 c0 437 -2 797 -5 799 -2 3 -85 -74 -184 -171z"/>
<path d="M760 3528 c-35 -33 -87 -80 -113 -103 -36 -32 -47 -47 -41 -58 5 -8
50 -59 100 -113 50 -55 115 -126 144 -159 30 -33 56 -62 59 -65 4 -3 36 -38
71 -79 36 -41 76 -86 90 -100 14 -14 60 -65 103 -112 104 -116 109 -122 207
-230 72 -79 141 -156 185 -205 6 -6 46 -51 91 -100 45 -49 101 -111 125 -138
24 -27 71 -78 103 -113 32 -35 68 -73 78 -86 11 -12 52 -58 91 -101 40 -44 79
-87 87 -96 18 -21 169 -187 190 -210 26 -28 203 -223 224 -247 l19 -22 31 26
c17 14 59 51 92 82 34 31 74 66 88 79 15 13 26 27 24 31 -3 8 -92 110 -153
176 -28 29 -160 175 -195 215 -19 22 -157 174 -190 210 -14 15 -59 65 -100
111 -41 45 -86 94 -99 108 -12 15 -54 60 -91 101 -37 41 -79 87 -91 101 -44
47 -173 190 -189 209 -8 10 -53 59 -100 110 -47 51 -92 100 -100 110 -8 9 -53
59 -100 111 -47 51 -110 120 -140 154 -30 33 -69 76 -86 95 -18 19 -41 44 -51
56 -19 22 -159 176 -230 253 -23 25 -43 49 -43 54 0 19 -31 1 -90 -55z"/>
</g>
</svg>
